<svg width="900" height="600" viewBox="0 0 900 600" fill="none" xmlns="http://www.w3.org/2000/svg">
  <defs>
    <linearGradient id="cs-cover-bg" x1="0" y1="0" x2="900" y2="600" gradientUnits="userSpaceOnUse">
      <stop stop-color="#FF8F70"/>
      <stop offset="1" stop-color="#FFCD70"/>
    </linearGradient>
  </defs>
  <rect width="900" height="600" rx="36" fill="url(#cs-cover-bg)"/>
  <rect x="200" y="130" width="500" height="340" rx="28" fill="#FFFFFF" stroke="#FFD6B3" stroke-width="4"/>
  <rect x="240" y="170" width="420" height="40" rx="20" fill="#FFF3E8"/>
  <g transform="translate(240 230)">
    <rect width="420" height="220" rx="24" fill="#FFF7F0"/>
    <g stroke="#FF9A62" stroke-width="4" opacity="0.5">
      <path d="M0 52H420"/>
      <path d="M0 104H420"/>
      <path d="M0 156H420"/>
      <path d="M60 0V220"/>
      <path d="M120 0V220"/>
      <path d="M180 0V220"/>
      <path d="M240 0V220"/>
      <path d="M300 0V220"/>
      <path d="M360 0V220"/>
    </g>
    <rect x="24" y="28" width="96" height="60" rx="16" fill="#FFB38B"/>
    <rect x="152" y="120" width="96" height="60" rx="16" fill="#FFDEB6"/>
    <rect x="280" y="80" width="96" height="60" rx="16" fill="#FFB38B" opacity="0.7"/>
    <rect x="320" y="160" width="56" height="40" rx="12" fill="#FFB38B" opacity="0.6"/>
  </g>
  <g opacity="0.35">
    <circle cx="160" cy="460" r="50" fill="#FFF0DA"/>
    <circle cx="740" cy="160" r="60" fill="#FFE0B8"/>
  </g>
</svg>
