<svg width="900" height="600" viewBox="0 0 900 600" fill="none" xmlns="http://www.w3.org/2000/svg">
  <defs>
    <linearGradient id="sd-cover-bg" x1="0" y1="0" x2="900" y2="600" gradientUnits="userSpaceOnUse">
      <stop stop-color="#5136FF"/>
      <stop offset="1" stop-color="#23C7D9"/>
    </linearGradient>
    <linearGradient id="sd-card" x1="200" y1="140" x2="700" y2="460" gradientUnits="userSpaceOnUse">
      <stop stop-color="#FFFFFF" stop-opacity="0.95"/>
      <stop offset="1" stop-color="#E8F7FF" stop-opacity="0.9"/>
    </linearGradient>
  </defs>
  <rect width="900" height="600" rx="36" fill="url(#sd-cover-bg)"/>
  <g filter="url(#sd-shadow)">
    <rect x="180" y="110" width="540" height="380" rx="28" fill="url(#sd-card)"/>
    <rect x="240" y="180" width="180" height="40" rx="20" fill="#EEF5FF"/>
    <rect x="240" y="244" width="420" height="24" rx="12" fill="#DDEAFF"/>
    <g transform="translate(240 300)">
      <rect x="0" y="0" width="420" height="160" rx="20" fill="#F6FBFF"/>
      <path d="M50 124V56" stroke="#42B4E6" stroke-width="20" stroke-linecap="round"/>
      <path d="M130 124V20" stroke="#7358FF" stroke-width="20" stroke-linecap="round"/>
      <path d="M210 124V80" stroke="#42B4E6" stroke-width="20" stroke-linecap="round"/>
      <path d="M290 124V40" stroke="#48E5C2" stroke-width="20" stroke-linecap="round"/>
      <path d="M370 124V68" stroke="#7358FF" stroke-width="20" stroke-linecap="round"/>
    </g>
  </g>
  <g opacity="0.5">
    <circle cx="760" cy="120" r="70" fill="#7FF1FF" fill-opacity="0.3"/>
    <circle cx="150" cy="470" r="54" fill="#93A6FF" fill-opacity="0.3"/>
  </g>
  <defs>
    <filter id="sd-shadow" x="120" y="70" width="660" height="460" filterUnits="userSpaceOnUse" color-interpolation-filters="sRGB">
      <feFlood flood-opacity="0" result="BackgroundImageFix"/>
      <feDropShadow dx="0" dy="24" stdDeviation="36" flood-color="#000000" flood-opacity="0.2"/>
      <feBlend in="SourceGraphic" in2="BackgroundImageFix" mode="normal" result="shape"/>
    </filter>
  </defs>
</svg>
