<svg width="900" height="600" viewBox="0 0 900 600" fill="none" xmlns="http://www.w3.org/2000/svg">
  <rect width="900" height="600" rx="40" fill="#EDF5FF"/>
  <rect x="170" y="130" width="560" height="360" rx="30" fill="#FFFFFF" stroke="#C0D9FF" stroke-width="4"/>
  <rect x="220" y="190" width="460" height="30" rx="15" fill="#DDE8FF"/>
  <rect x="220" y="240" width="460" height="22" rx="11" fill="#EEF4FF"/>
  <g transform="translate(220 290)">
    <rect width="460" height="180" rx="24" fill="#F7FAFF"/>
    <path d="M70 140C70 103.624 99.6243 74 136 74C159.769 74 180.141 87.0875 193.741 106.395C207.083 125.32 224.028 140 244 140C276.451 140 304 112.451 304 80C304 75.5817 304.357 71.253 305.043 67.0442C312.061 24.4512 348.22 -4.0243 390.813 2.9937C431.861 9.75446 460 45.3304 460 86.8275V140H70Z" fill="#6BC3FF" fill-opacity="0.5"/>
    <path d="M70 140C70 100.905 102.905 68 142 68C164.218 68 184.106 77.4821 198.528 92.928C213.289 108.733 233.767 120 256 120C288.451 120 316 92.4513 316 60C316 55.5817 316.357 51.253 317.043 47.0442C324.061 4.45124 360.22 -24.0243 402.813 -17.0063C443.861 -10.2455 472 25.3304 472 66.8275V140H70Z" fill="#4E82FF" fill-opacity="0.35"/>
  </g>
  <circle cx="730" cy="180" r="64" fill="#A9C7FF" fill-opacity="0.4"/>
  <circle cx="210" cy="460" r="44" fill="#86E4FF" fill-opacity="0.35"/>
</svg>
